<svg xmlns="http://www.w3.org/2000/svg" width="431" height="125" viewBox="0 0 431 125" fill="none">
    <path d="M-14.639 25.4807L52.6932 18.446C59.4316 17.742 66.2428 18.4212 72.7095 20.442L139.45 41.2984C149.861 44.5518 161.052 44.295 171.303 40.5675L202.29 29.2994C209.205 26.7849 216.591 25.8349 223.918 26.5179L261.155 29.9892C273.94 31.181 286.691 27.3853 296.743 19.3955L306.795 11.4051C319.026 1.68344 335.111 -1.73072 350.236 2.18488L440.222 25.4807M-14.639 41.6844L52.6932 34.6497C59.4316 33.9457 66.2428 34.6249 72.7095 36.6457L139.45 57.5021C149.861 60.7555 161.052 60.4987 171.303 56.7712L202.29 45.5031C209.205 42.9886 216.591 42.0386 223.918 42.7216L261.155 46.1929C273.94 47.3847 286.691 43.589 296.743 35.5992L306.795 27.6088C319.026 17.8871 335.111 14.473 350.236 18.3886L440.222 41.6844M-14.639 58.4668L52.6932 51.4321C59.4316 50.7281 66.2428 51.4073 72.7095 53.4281L139.45 74.2845C149.861 77.5379 161.052 77.2811 171.303 73.5536L202.29 62.2855C209.205 59.771 216.591 58.821 223.918 59.504L261.155 62.9753C273.94 64.1671 286.691 60.3714 296.743 52.3816L306.795 44.3912C319.026 34.6695 335.111 31.2554 350.236 35.171L440.222 58.4668M-14.639 74.6705L52.6932 67.6358C59.4316 66.9318 66.2428 67.611 72.7095 69.6318L139.45 90.4882C149.861 93.7416 161.052 93.4848 171.303 89.7573L202.29 78.4892C209.205 75.9747 216.591 75.0247 223.918 75.7077L261.155 79.179C273.94 80.3708 286.691 76.5751 296.743 68.5853L306.795 60.5949C319.026 50.8732 335.111 47.4591 350.236 51.3747L440.222 74.6705M-14.639 90.2955L52.6932 83.2608C59.4316 82.5568 66.2428 83.236 72.7095 85.2568L139.45 106.113C149.861 109.367 161.052 109.11 171.303 105.382L202.29 94.1142C209.205 91.5997 216.591 90.6497 223.918 91.3327L261.155 94.804C273.94 95.9958 286.691 92.2001 296.743 84.2103L306.795 76.2199C319.026 66.4982 335.111 63.0841 350.236 66.9997L440.222 90.2955M-14.639 106.499L52.6932 99.4645C59.4316 98.7605 66.2428 99.4397 72.7095 101.461L139.45 122.317C149.861 125.57 161.052 125.314 171.303 121.586L202.29 110.318C209.205 107.803 216.591 106.853 223.918 107.536L261.155 111.008C273.94 112.199 286.691 108.404 296.743 100.414L306.795 92.4236C319.026 82.7019 335.111 79.2878 350.236 83.2034L440.222 106.499" stroke="#2D2D2D" stroke-width="0.248843"/>
</svg>