<svg xmlns="http://www.w3.org/2000/svg" width="65" height="65" viewBox="0 0 65 65" fill="none">
  <path d="M35.4205 5.99023C38.43 5.99826 39.9575 6.01431 41.2764 6.05176L41.7953 6.07049C42.3946 6.09189 42.9858 6.11864 43.7 6.15074C46.5464 6.2845 48.4885 6.73392 50.1926 7.39468C51.9582 8.07417 53.4456 8.99442 54.9329 10.4791C56.2932 11.8164 57.3458 13.434 58.0174 15.2195C58.6781 16.9235 59.1276 18.8657 59.2613 21.7147C59.2934 22.4263 59.3202 23.0175 59.3416 23.6194L59.3576 24.1384C59.3978 25.4546 59.4138 26.9821 59.4192 29.9916L59.4218 31.9872V35.4917C59.4284 37.4429 59.4079 39.3942 59.3603 41.3449L59.3443 41.8639C59.3229 42.4658 59.2961 43.057 59.264 43.7686C59.1302 46.6176 58.6755 48.5571 58.0174 50.2638C57.3477 52.0502 56.2949 53.6682 54.9329 55.0042C53.5953 56.364 51.9777 57.4165 50.1926 58.0886C48.4885 58.7493 46.5464 59.1988 43.7 59.3325C43.0653 59.3624 42.4304 59.3892 41.7953 59.4128L41.2764 59.4288C39.9575 59.4663 38.43 59.485 35.4205 59.4904L33.4248 59.493H29.9231C27.9709 59.4998 26.0188 59.4793 24.0672 59.4315L23.5482 59.4155C22.9131 59.3914 22.2782 59.3638 21.6435 59.3325C18.7971 59.1988 16.855 58.7493 15.1483 58.0886C13.3631 57.4181 11.7461 56.3654 10.4106 55.0042C9.04906 53.6673 7.99553 52.0496 7.32347 50.2638C6.66271 48.5597 6.21329 46.6176 6.07953 43.7686C6.04973 43.1338 6.02298 42.4989 5.99928 41.8639L5.9859 41.3449C5.93661 39.3942 5.91431 37.443 5.91902 35.4917V29.9916C5.91156 28.0403 5.93118 26.0891 5.97788 24.1384L5.9966 23.6194C6.018 23.0175 6.04476 22.4263 6.07686 21.7147C6.21061 18.8657 6.66004 16.9262 7.3208 15.2195C7.99256 13.4322 9.04819 11.8141 10.4133 10.4791C11.7484 9.11874 13.3643 8.06611 15.1483 7.39468C16.855 6.73392 18.7945 6.2845 21.6435 6.15074C22.3551 6.11864 22.949 6.09189 23.5482 6.07049L24.0672 6.05444C26.0179 6.00691 27.9691 5.9864 29.9204 5.99291L35.4205 5.99023ZM32.6704 19.3659C29.123 19.3659 25.7208 20.7752 23.2124 23.2836C20.7039 25.792 19.2947 29.1942 19.2947 32.7416C19.2947 36.2891 20.7039 39.6913 23.2124 42.1997C25.7208 44.7081 29.123 46.1173 32.6704 46.1173C36.2179 46.1173 39.62 44.7081 42.1285 42.1997C44.6369 39.6913 46.0461 36.2891 46.0461 32.7416C46.0461 29.1942 44.6369 25.792 42.1285 23.2836C39.62 20.7752 36.2179 19.3659 32.6704 19.3659ZM32.6704 24.7162C33.7243 24.716 34.768 24.9235 35.7417 25.3266C36.7155 25.7298 37.6003 26.3208 38.3456 27.0659C39.091 27.811 39.6823 28.6956 40.0858 29.6692C40.4893 30.6428 40.697 31.6864 40.6972 32.7403C40.6974 33.7942 40.49 34.8378 40.0868 35.8116C39.6836 36.7854 39.0926 37.6702 38.3475 38.4155C37.6024 39.1609 36.7178 39.7522 35.7442 40.1556C34.7706 40.5591 33.727 40.7669 32.6731 40.7671C30.5446 40.7671 28.5033 39.9215 26.9983 38.4165C25.4932 36.9114 24.6477 34.8701 24.6477 32.7416C24.6477 30.6132 25.4932 28.5719 26.9983 27.0668C28.5033 25.5617 30.5446 24.7162 32.6731 24.7162M46.7176 15.3532C45.8307 15.3532 44.9802 15.7055 44.3531 16.3326C43.726 16.9597 43.3737 17.8103 43.3737 18.6972C43.3737 19.584 43.726 20.4346 44.3531 21.0617C44.9802 21.6888 45.8307 22.0411 46.7176 22.0411C47.6045 22.0411 48.455 21.6888 49.0821 21.0617C49.7092 20.4346 50.0615 19.584 50.0615 18.6972C50.0615 17.8103 49.7092 16.9597 49.0821 16.3326C48.455 15.7055 47.6045 15.3532 46.7176 15.3532Z" fill="white"/>
</svg>