<svg xmlns="http://www.w3.org/2000/svg" width="66" height="65" viewBox="0 0 66 65" fill="none">
  <path d="M51.6406 8.66504C53.0596 8.66504 54.4205 9.22873 55.4238 10.2321C56.4272 11.2355 56.9909 12.5963 56.9909 14.0153V51.4673C56.9909 52.8863 56.4272 54.2471 55.4238 55.2505C54.4205 56.2539 53.0596 56.8176 51.6406 56.8176H14.1887C12.7697 56.8176 11.4088 56.2539 10.4054 55.2505C9.40207 54.2471 8.83838 52.8863 8.83838 51.4673V14.0153C8.83838 12.5963 9.40207 11.2355 10.4054 10.2321C11.4088 9.22873 12.7697 8.66504 14.1887 8.66504H51.6406ZM50.3031 50.1297V35.9515C50.3031 33.6385 49.3842 31.4203 47.7487 29.7848C46.1132 28.1493 43.895 27.2305 41.5821 27.2305C39.3082 27.2305 36.6598 28.6216 35.3758 30.7082V27.7388H27.9121V50.1297H35.3758V36.9413C35.3758 34.8814 37.0344 33.1961 39.0942 33.1961C40.0875 33.1961 41.0401 33.5907 41.7425 34.293C42.4448 34.9954 42.8394 35.948 42.8394 36.9413V50.1297H50.3031ZM19.2179 23.5388C20.4099 23.5388 21.553 23.0653 22.3958 22.2225C23.2387 21.3797 23.7122 20.2365 23.7122 19.0446C23.7122 16.5567 21.7058 14.5236 19.2179 14.5236C18.0189 14.5236 16.869 14.9999 16.0211 15.8478C15.1733 16.6956 14.6969 17.8455 14.6969 19.0446C14.6969 21.5325 16.73 23.5388 19.2179 23.5388ZM22.9364 50.1297V27.7388H15.5262V50.1297H22.9364Z" fill="white"/>
</svg>