<svg width="1728" height="420" viewBox="0 0 1728 420" fill="none" xmlns="http://www.w3.org/2000/svg">
<path d="M-94.6371 284.406L87.2192 171.943C169.857 120.838 276.41 130.986 347.916 196.771C429.522 271.849 554.639 273.207 637.856 199.919L730.96 117.924C809.637 48.6354 924.705 39.8736 1012.97 96.4508L1075.3 136.407C1148.33 183.223 1241.22 185.974 1316.89 143.564L1451.04 68.3829C1488.15 47.5868 1531.12 39.7252 1573.19 46.0362L1822.64 83.4581V174.442L1573.19 137.02C1531.12 130.709 1488.15 138.571 1451.04 159.367L1316.89 234.548C1241.22 276.958 1148.33 274.206 1075.3 227.391L1012.97 187.435C924.705 130.857 809.637 139.619 730.96 208.908L637.856 290.903C554.639 364.191 429.522 362.833 347.916 287.755C276.41 221.97 169.857 211.822 87.2191 262.927L-94.6371 375.39V284.406Z" fill="#F9F9F9"/>
<path d="M-33.0892 316.531L49.7304 242.217C122.155 177.23 228.502 167.095 311.899 217.232L357.451 244.618L388.934 261.791C465.966 303.808 560.535 296.415 630.101 242.936L748.441 151.962C821.426 95.8547 921.499 90.7162 999.847 139.053L1084.66 191.377C1153.38 233.775 1239.72 235.435 1310.02 195.71L1445.17 119.344C1492.78 92.4422 1548.65 84.0935 1602.04 95.9038L1759.19 130.665" stroke="#ECECEC" stroke-width="3.32392" stroke-linecap="round" stroke-dasharray="44.32 55.4"/>
</svg>
