<svg width="1728" height="333" viewBox="0 0 1728 333" fill="none" xmlns="http://www.w3.org/2000/svg">
<path d="M-94.6371 241.406L87.2192 128.943C169.857 77.8378 276.41 87.9858 347.916 153.771C429.522 228.849 554.639 230.207 637.856 156.919L730.96 74.9242C809.637 5.63541 924.705 -3.12644 1012.97 53.4508L1075.3 93.4072C1148.33 140.223 1241.22 142.974 1316.89 100.564L1451.04 25.3829C1488.15 4.58683 1531.12 -3.27477 1573.19 3.03616L1822.64 40.4581V131.442L1573.19 94.02C1531.12 87.7091 1488.15 95.5707 1451.04 116.367L1316.89 191.548C1241.22 233.958 1148.33 231.206 1075.3 184.391L1012.97 144.435C924.705 87.8573 809.637 96.6194 730.96 165.908L637.856 247.903C554.639 321.191 429.522 319.833 347.916 244.755C276.41 178.97 169.857 168.822 87.2191 219.927L-94.6371 332.39V241.406Z" fill="#F9F9F9"/>
</svg>
