<svg width="28" height="28" viewBox="0 0 28 28" fill="none" xmlns="http://www.w3.org/2000/svg">
    <path
        d="M5.73407 0.768341C5.34908 0.773435 4.94092 0.83133 4.50891 0.947118C-0.564079 2.30648 -0.00429797 13.8432 3.97067 18.9513L3.97079 18.9512L9.73203 17.4075C9.54254 15.3478 9.7322 13.0052 10.8501 10.8106C11.001 5.60188 9.45518 0.719072 5.73413 0.768283L5.73407 0.768341ZM22.777 0.768341C19.056 0.719015 17.5102 5.60182 17.6609 10.8107C18.7788 13.0052 18.9685 15.3478 18.7791 17.4075L24.5404 18.9512L24.5405 18.9513C28.5154 13.8432 29.0752 2.30642 24.0022 0.947118C23.5702 0.83133 23.162 0.773435 22.7771 0.768341H22.777ZM10.2131 19.8089L4.35075 21.3795C4.66888 32.4892 15.9591 27.4081 10.2131 19.8089ZM18.2981 19.8089C12.5521 27.4081 23.8424 32.4892 24.1606 21.3795L18.2981 19.8089Z"
        fill="white" />
</svg>